<svg xmlns="http://www.w3.org/2000/svg" xmlns:xlink="http://www.w3.org/1999/xlink" preserveAspectRatio="xMidYMid" width="27" height="27" viewBox="0 0 27 27">
  <defs>
    <style>

      .cls-2 {
        fill: #09a610;
      }
    </style>
  </defs>
  <path d="M13.492,26.998 C6.050,26.998 -0.004,20.942 -0.004,13.499 C-0.004,6.057 6.050,0.003 13.492,0.003 C20.935,0.003 26.991,6.057 26.991,13.499 C26.991,20.942 20.935,26.998 13.492,26.998 ZM13.492,1.597 C6.928,1.597 1.589,6.936 1.589,13.499 C1.589,20.064 6.928,25.404 13.492,25.404 C20.057,25.404 25.398,20.064 25.398,13.499 C25.398,6.936 20.057,1.597 13.492,1.597 ZM13.493,20.834 C12.690,20.834 12.033,20.117 12.033,19.241 C12.033,19.241 12.033,13.532 12.033,13.532 C12.033,12.655 12.690,11.938 13.493,11.938 C14.297,11.938 14.954,12.655 14.954,13.532 C14.954,13.532 14.954,19.241 14.954,19.241 C14.954,20.117 14.297,20.834 13.493,20.834 ZM13.493,9.087 C12.688,9.087 12.033,8.434 12.033,7.628 C12.033,6.820 12.688,6.167 13.493,6.167 C14.299,6.167 14.954,6.820 14.954,7.628 C14.954,8.434 14.299,9.087 13.493,9.087 Z" id="path-1" class="cls-2" fill-rule="evenodd"/>
</svg>
