<svg xmlns="http://www.w3.org/2000/svg" xmlns:xlink="http://www.w3.org/1999/xlink" preserveAspectRatio="xMidYMid" width="47" height="55" viewBox="0 0 47 55">
  <defs>
    <style>

      .cls-2 {
        fill: #09a610;
      }
    </style>
  </defs>
  <path d="M29.536,42.283 C31.192,41.039 32.967,40.270 34.853,39.992 C35.646,40.204 36.470,40.319 37.318,40.319 C39.981,40.319 42.406,39.198 44.158,37.390 C45.909,35.582 46.995,33.086 46.995,30.329 C46.995,28.432 46.472,26.656 45.576,25.134 C45.576,25.134 45.521,25.028 45.521,25.028 C44.784,23.817 43.793,22.770 42.628,21.976 C42.763,21.649 42.874,21.313 42.961,20.969 C43.159,20.209 43.262,19.415 43.262,18.622 C43.262,16.461 42.525,14.473 41.297,12.927 C40.274,11.635 38.903,10.636 37.326,10.097 C37.247,8.599 36.629,7.241 35.686,6.227 C35.686,6.227 35.606,6.145 35.606,6.145 C34.544,5.048 33.078,4.369 31.454,4.369 C31.303,4.369 31.136,4.378 30.970,4.394 C30.280,3.199 29.330,2.193 28.204,1.440 C26.849,0.540 25.232,0.009 23.497,0.009 C21.318,0.009 19.312,0.843 17.782,2.217 C16.507,3.363 15.547,4.909 15.096,6.652 C14.105,6.775 13.178,7.135 12.393,7.699 C11.616,8.255 10.974,9.000 10.531,9.860 C8.708,10.301 7.091,11.340 5.910,12.756 C4.595,14.327 3.803,16.380 3.803,18.622 C3.803,19.424 3.905,20.200 4.096,20.954 C4.191,21.289 4.294,21.616 4.420,21.936 C3.248,22.729 2.241,23.776 1.496,25.003 C0.545,26.542 -0.002,28.374 -0.002,30.329 C-0.002,33.045 1.053,35.517 2.764,37.316 C2.764,37.316 2.835,37.390 2.835,37.390 C4.587,39.198 7.004,40.319 9.683,40.319 C10.523,40.319 11.355,40.204 12.140,39.992 C14.026,40.270 15.801,41.039 17.458,42.283 C18.837,43.330 20.152,44.713 21.396,46.439 C21.396,46.439 21.396,52.093 21.396,52.093 C21.396,52.093 8.962,52.093 8.962,52.093 C8.265,52.093 7.702,52.673 7.702,53.393 C7.702,54.113 8.265,54.694 8.962,54.694 C8.962,54.694 38.039,54.694 38.039,54.694 C38.729,54.694 39.300,54.113 39.300,53.393 C39.300,52.673 38.729,52.093 38.039,52.093 C38.039,52.093 25.605,52.093 25.605,52.093 C25.605,52.093 25.605,46.439 25.605,46.439 C26.841,44.713 28.156,43.330 29.536,42.283 ZM28.061,40.188 C27.213,40.826 26.390,41.571 25.605,42.422 C25.605,42.422 25.605,40.082 25.605,40.082 C26.397,39.894 27.158,39.615 27.863,39.239 C27.863,39.239 27.975,39.190 27.975,39.190 C28.878,38.699 29.694,38.069 30.408,37.325 C30.724,37.660 31.065,37.971 31.429,38.257 C30.265,38.732 29.139,39.370 28.061,40.188 ZM21.396,42.422 C20.604,41.571 19.788,40.826 18.940,40.188 C17.854,39.370 16.736,38.732 15.571,38.257 C15.928,37.971 16.277,37.660 16.594,37.325 C17.299,38.069 18.123,38.699 19.027,39.182 C19.763,39.583 20.564,39.885 21.396,40.082 C21.396,40.082 21.396,42.422 21.396,42.422 ZM23.497,37.717 C22.300,37.717 21.167,37.415 20.184,36.891 C19.161,36.335 18.274,35.525 17.616,34.551 C17.220,33.970 16.435,33.823 15.865,34.232 C15.738,34.322 15.635,34.429 15.556,34.551 C14.644,35.902 13.297,36.915 11.775,37.399 C11.775,37.399 11.767,37.399 11.767,37.399 C11.767,37.399 11.680,37.423 11.680,37.423 C11.680,37.423 11.672,37.431 11.672,37.431 C11.672,37.431 11.656,37.431 11.656,37.431 C11.656,37.431 11.624,37.447 11.624,37.447 C11.006,37.619 10.357,37.717 9.683,37.717 C7.702,37.717 5.910,36.891 4.618,35.550 C4.618,35.550 4.547,35.483 4.547,35.483 C3.296,34.158 2.518,32.334 2.518,30.329 C2.518,28.873 2.923,27.515 3.620,26.377 C4.342,25.199 5.380,24.250 6.608,23.645 C7.242,23.342 7.503,22.557 7.202,21.910 C7.202,21.910 7.123,21.755 7.123,21.755 C6.870,21.297 6.672,20.798 6.537,20.283 C6.402,19.751 6.323,19.194 6.323,18.622 C6.323,17.018 6.885,15.561 7.813,14.449 C8.756,13.320 10.087,12.526 11.585,12.298 C12.077,12.232 12.449,11.880 12.599,11.430 C12.845,10.784 13.281,10.219 13.820,9.834 C14.478,9.369 15.263,9.180 16.039,9.237 C16.720,9.286 17.307,8.763 17.378,8.067 C17.593,6.529 18.345,5.154 19.439,4.181 C20.517,3.207 21.943,2.610 23.497,2.610 C24.733,2.610 25.882,2.986 26.849,3.625 C27.832,4.287 28.632,5.237 29.131,6.366 C29.393,6.971 30.043,7.266 30.645,7.077 C31.763,6.783 33.007,7.135 33.831,7.985 C33.831,7.985 33.887,8.043 33.887,8.043 C34.457,8.665 34.814,9.515 34.814,10.448 C34.814,10.629 34.806,10.784 34.790,10.914 C34.703,11.594 35.147,12.224 35.789,12.354 C37.215,12.649 38.460,13.459 39.347,14.580 C40.219,15.676 40.742,17.084 40.742,18.622 C40.742,19.211 40.662,19.775 40.528,20.291 C40.528,20.291 40.528,20.298 40.528,20.298 C40.386,20.847 40.171,21.371 39.902,21.845 C39.545,22.459 39.751,23.261 40.346,23.620 C40.346,23.620 40.441,23.670 40.441,23.670 C41.645,24.275 42.668,25.232 43.381,26.403 C43.381,26.403 43.444,26.501 43.444,26.501 C44.094,27.605 44.467,28.914 44.467,30.329 C44.467,32.367 43.667,34.216 42.375,35.550 C41.083,36.891 39.292,37.717 37.318,37.717 C36.169,37.717 35.020,37.439 34.005,36.891 C32.975,36.335 32.088,35.525 31.429,34.551 C31.033,33.970 30.249,33.823 29.686,34.232 C29.560,34.322 29.457,34.429 29.369,34.551 C28.711,35.525 27.832,36.326 26.809,36.883 C26.809,36.883 26.730,36.924 26.730,36.924 C25.763,37.431 24.662,37.717 23.497,37.717 Z" id="path-1" class="cls-2" fill-rule="evenodd"/>
</svg>
