<svg xmlns="http://www.w3.org/2000/svg" xmlns:xlink="http://www.w3.org/1999/xlink" preserveAspectRatio="xMidYMid" width="25" height="25" viewBox="0 0 25 25">
  <defs>
    <style>

      .cls-2 {
        fill: #ffffff;
      }
    </style>
  </defs>
  <path d="M24.259,25.000 C24.259,25.000 0.736,25.000 0.736,25.000 C0.329,25.000 -0.001,24.672 -0.001,24.266 C-0.001,24.266 -0.001,9.263 -0.001,9.263 C-0.001,8.857 0.329,8.528 0.736,8.528 C0.736,8.528 5.811,8.528 5.811,8.528 C5.635,7.957 5.529,7.421 5.529,6.945 C5.529,3.116 8.656,-0.001 12.497,-0.001 C16.339,-0.001 19.465,3.116 19.465,6.945 C19.465,7.421 19.360,7.957 19.184,8.528 C19.184,8.528 24.259,8.528 24.259,8.528 C24.666,8.528 24.996,8.857 24.996,9.263 C24.996,9.263 24.996,24.266 24.996,24.266 C24.996,24.672 24.666,25.000 24.259,25.000 ZM12.497,1.468 C9.468,1.468 7.003,3.925 7.003,6.945 C7.003,7.498 7.207,8.198 7.535,8.972 C7.537,8.976 7.538,8.979 7.539,8.982 C8.605,11.485 11.022,14.787 12.497,16.629 C13.972,14.787 16.389,11.485 17.455,8.982 C17.457,8.979 17.458,8.976 17.459,8.972 C17.788,8.198 17.992,7.498 17.992,6.945 C17.992,3.925 15.527,1.468 12.497,1.468 ZM23.522,9.997 C23.522,9.997 18.610,9.997 18.610,9.997 C16.985,13.531 13.560,17.671 13.062,18.264 C12.922,18.430 12.715,18.526 12.497,18.526 C12.279,18.526 12.073,18.430 11.932,18.264 C11.435,17.671 8.009,13.531 6.384,9.997 C6.384,9.997 1.473,9.997 1.473,9.997 C1.473,9.997 1.473,23.531 1.473,23.531 C1.473,23.531 23.522,23.531 23.522,23.531 C23.522,23.531 23.522,9.997 23.522,9.997 ZM12.497,10.423 C10.573,10.423 9.008,8.864 9.008,6.945 C9.008,5.028 10.573,3.467 12.497,3.467 C14.421,3.467 15.986,5.028 15.986,6.945 C15.986,8.864 14.421,10.423 12.497,10.423 ZM12.497,4.937 C11.386,4.937 10.482,5.837 10.482,6.945 C10.482,8.053 11.386,8.954 12.497,8.954 C13.609,8.954 14.512,8.053 14.512,6.945 C14.512,5.837 13.609,4.937 12.497,4.937 Z" id="path-1" class="cls-2" fill-rule="evenodd"/>
</svg>
