<?xml version="1.0" encoding="utf-8"?>
<!-- Generator: Adobe Illustrator 18.1.1, SVG Export Plug-In . SVG Version: 6.00 Build 0)  -->
<!DOCTYPE svg PUBLIC "-//W3C//DTD SVG 1.1//EN" "http://www.w3.org/Graphics/SVG/1.1/DTD/svg11.dtd">
<svg version="1.1" id="Layer_1" xmlns="http://www.w3.org/2000/svg" xmlns:xlink="http://www.w3.org/1999/xlink" x="0px" y="0px"
	 viewBox="0 0 14 19.1" enable-background="new 0 0 14 19.1" xml:space="preserve">
<g>
	<g>
		<path fill="#FFFFFF" d="M7,0C3.1,0,0,3.2,0,7.1c0,3.8,6.3,11.4,6.6,11.8C6.7,19,6.8,19.1,7,19.1s0.3-0.1,0.4-0.2
			c0.3-0.3,6.6-8,6.6-11.8C14,3.2,10.9,0,7,0z"/>
	</g>
</g>
<path fill="#009444" d="M7,3.6c-1.9,0-3.4,1.5-3.4,3.4c0,1.9,1.5,3.4,3.4,3.4c1.9,0,3.4-1.5,3.4-3.4C10.4,5.2,8.9,3.6,7,3.6z"/>
<path fill="#009444" d="M7,0C3.1,0,0,3.2,0,7.1c0,3.8,6.3,11.4,6.6,11.8C6.7,19,6.8,19.1,7,19.1c0.2,0,0.3-0.1,0.4-0.2
	c0.3-0.3,6.6-8,6.6-11.8C14,3.2,10.9,0,7,0z M7,17.6C5,15.1,1.1,9.7,1.1,7.1c0-3.3,2.7-6,5.9-6c3.3,0,5.9,2.7,5.9,6
	C12.9,9.7,9,15.1,7,17.6z"/>
</svg>
