<svg xmlns="http://www.w3.org/2000/svg" xmlns:xlink="http://www.w3.org/1999/xlink" preserveAspectRatio="xMidYMid" width="28" height="27" viewBox="0 0 28 27">
  <defs>
    <style>

      .cls-2 {
        fill: #a0eea2;
      }
    </style>
  </defs>
  <path d="M18.733,18.204 C16.360,18.204 14.199,17.318 12.557,15.871 C12.557,15.871 10.699,17.696 10.699,17.696 C10.699,17.696 11.262,18.249 11.262,18.249 C11.262,18.249 4.429,26.259 4.429,26.259 C3.922,26.758 3.257,27.007 2.592,27.007 C1.928,27.007 1.263,26.758 0.756,26.259 C-0.259,25.263 -0.259,23.648 0.756,22.651 C0.756,22.651 8.908,15.937 8.908,15.937 C8.908,15.937 9.475,16.494 9.475,16.494 C9.475,16.494 11.379,14.623 11.379,14.623 C10.182,13.088 9.461,11.177 9.461,9.098 C9.461,4.077 13.620,-0.009 18.733,-0.009 C23.846,-0.009 28.007,4.077 28.007,9.098 C28.007,14.120 23.846,18.204 18.733,18.204 ZM18.733,1.692 C14.576,1.692 11.193,5.014 11.193,9.098 C11.193,13.181 14.576,16.504 18.733,16.504 C22.892,16.504 26.275,13.181 26.275,9.098 C26.275,5.014 22.892,1.692 18.733,1.692 ZM18.733,4.056 C15.902,4.056 13.598,6.318 13.598,9.098 C13.598,9.333 13.405,9.524 13.165,9.524 C12.926,9.524 12.732,9.333 12.732,9.098 C12.732,5.849 15.425,3.205 18.733,3.205 C18.973,3.205 19.166,3.394 19.166,3.630 C19.166,3.864 18.973,4.056 18.733,4.056 Z" id="path-1" class="cls-2" fill-rule="evenodd"/>
</svg>
