<?xml version="1.0" encoding="utf-8"?>
<!-- Generator: Adobe Illustrator 18.1.1, SVG Export Plug-In . SVG Version: 6.00 Build 0)  -->
<!DOCTYPE svg PUBLIC "-//W3C//DTD SVG 1.1//EN" "http://www.w3.org/Graphics/SVG/1.1/DTD/svg11.dtd">
<svg version="1.1" id="Layer_1" xmlns="http://www.w3.org/2000/svg" xmlns:xlink="http://www.w3.org/1999/xlink" x="0px" y="0px"
	 viewBox="0 0 25 34" enable-background="new 0 0 25 34" xml:space="preserve">
<g>
	<g>
		<path fill="#FFFFFF" d="M12.5,0C5.6,0,0,5.7,0,12.7c0,6.7,11.3,20.4,11.8,21c0.2,0.2,0.5,0.4,0.8,0.4s0.6-0.1,0.8-0.4
			c0.5-0.6,11.8-14.3,11.8-21C25,5.7,19.4,0,12.5,0z"/>
	</g>
</g>
<path fill="#11A54A" d="M12.5,0C5.6,0,0,5.7,0,12.7c0,6.7,11.3,20.4,11.8,21c0.2,0.2,0.5,0.4,0.8,0.4s0.6-0.1,0.8-0.4
	c0.5-0.6,11.8-14.3,11.8-21C25,5.7,19.4,0,12.5,0z M12.5,26.5c-2.6-3.2-7.7-10.3-7.7-13.7C4.8,8.5,8.3,5,12.5,5
	c4.2,0,7.7,3.5,7.7,7.8C20.2,16.1,15.1,23.2,12.5,26.5z"/>
</svg>
