<?xml version="1.0" encoding="utf-8"?>
<!-- Generator: Adobe Illustrator 18.1.1, SVG Export Plug-In . SVG Version: 6.00 Build 0)  -->
<!DOCTYPE svg PUBLIC "-//W3C//DTD SVG 1.1//EN" "http://www.w3.org/Graphics/SVG/1.1/DTD/svg11.dtd">
<svg version="1.1" id="Layer_1" xmlns="http://www.w3.org/2000/svg" xmlns:xlink="http://www.w3.org/1999/xlink" x="0px" y="0px"
     viewBox="0 0 841.9 595.3" enable-background="new 0 0 841.9 595.3" xml:space="preserve">
<g>
    <path fill="#11A54A" d="M600.9,250.3c1.1-0.3,2.2-0.8,3-1.3c0.8-0.5,1.3-1.1,1.9-1.9c0.5-0.5,0.8-1.3,1.1-2.2
        c0.3-0.8,0.3-1.6,0.3-2.4c0-1.3-0.3-2.7-0.8-4c-0.5-1.1-1.3-2.2-2.4-3c-1.1-0.8-2.4-1.3-4-1.9c-1.6-0.5-3.8-0.8-5.9-0.8h-12.4v36
        h13.7c2.2,0,4-0.3,5.6-0.8c1.6-0.5,3-1.3,4-2.2c1.1-0.8,1.9-2.2,2.4-3.2c0.5-1.3,0.8-2.7,0.8-4.3
        C608.2,254.1,605.7,251.4,600.9,250.3z M588.2,238.2h5.6c2.2,0,4,0.3,5.1,1.1c1.1,0.8,1.6,2.2,1.6,4c0,1.9-0.5,3.2-1.9,4
        c-1.1,0.8-3,1.3-5.1,1.3h-5.4V238.2L588.2,238.2z M601.2,260.3c-0.3,0.5-0.5,1.3-1.1,1.6c-0.5,0.5-1.1,0.8-2.2,1.1
        c-0.8,0.3-1.9,0.5-3.2,0.5H588V253h6.7c1.1,0,2.2,0,3,0.3c0.8,0.3,1.6,0.5,2.2,1.1c0.5,0.5,0.8,1.1,1.1,1.6
        c0.3,0.5,0.3,1.3,0.3,2.2C601.4,258.9,601.4,259.7,601.2,260.3z"/>
    <path fill="#11A54A" d="M631.6,232.8h-6.7l-14.3,36h5.1c0.5,0,1.1-0.3,1.3-0.5c0.3-0.3,0.5-0.5,0.8-1.1l2.7-7.3h14.8l2.7,7.3
        c0.3,0.5,0.5,0.8,0.8,1.1s0.8,0.5,1.3,0.5h5.1L631.6,232.8z M622.4,255.4l4.3-11.8c0.3-0.5,0.5-1.1,0.5-1.9
        c0.3-0.8,0.5-1.6,0.8-2.4c0.3,0.8,0.5,1.6,0.8,2.4c0.3,0.8,0.5,1.3,0.5,1.9l4.3,12.1h-11.3V255.4z"/>
    <path fill="#11A54A" d="M655.2,246.8c0-0.5,0-0.8,0-1.3s0-1.1,0-1.6l18.8,23.9c0.3,0.5,0.5,0.8,1.1,0.8c0.3,0.3,0.8,0.3,1.3,0.3
        h3.5v-36H674v21.8c0,0.5,0,1.1,0,1.6c0,0.5,0,1.1,0.3,1.6l-18.8-24.2c-0.3-0.3-0.3-0.5-0.5-0.5c-0.3-0.3-0.3-0.3-0.5-0.3
        s-0.3,0-0.5-0.3c-0.3,0-0.5,0-0.8,0h-3.5v36h5.9v-21.8H655.2z"/>
    <path fill="#11A54A" d="M694,253h2.2c0.8,0,1.3,0,1.9,0.3c0.5,0.3,0.8,0.5,1.1,0.8l10.2,13.2c0.3,0.5,0.5,0.8,1.1,1.1
        c0.3,0.3,1.1,0.3,1.9,0.3h5.9l-12.4-16.9c-0.5-0.5-0.8-1.1-1.3-1.3c-0.5-0.3-0.8-0.5-1.6-0.8c0.3-0.3,0.8-0.5,1.1-0.8
        c0.3-0.3,0.8-0.8,1.1-1.1l12.1-15.1h-5.6c-0.8,0-1.3,0-1.6,0.3c-0.5,0.3-0.8,0.5-1.3,1.1l-10,12.6c-0.3,0.3-0.5,0.5-1.1,0.8
        c-0.5,0.3-0.8,0.3-1.6,0.3H694v-14.8h-6.7v36h6.7V253z"/>
    <path fill="#11A54A" d="M587.4,296.6c0-0.5,0-0.8,0-1.3c0-0.5,0-1.1,0-1.6l18.8,23.9c0.3,0.5,0.5,0.8,1.1,0.8
        c0.3,0.3,0.8,0.3,1.3,0.3h3.5v-36h-5.9v22.1c0,0.5,0,1.1,0,1.6c0,0.5,0,1.1,0.3,1.6l-18.8-24.2c-0.3-0.3-0.3-0.5-0.5-0.5
        c-0.3-0.3-0.3-0.3-0.5-0.3c-0.3,0-0.3,0-0.5-0.3c-0.3,0-0.5,0-0.8,0h-3.5v36h5.9v-22.1H587.4z"/>
    <path fill="#11A54A" d="M636.7,282.6h-6.7l-14.3,36h5.1c0.5,0,1.1-0.3,1.3-0.5c0.3-0.3,0.5-0.5,0.8-1.1l2.7-7.3h14.8l2.7,7.3
        c0.3,0.5,0.5,0.8,0.8,1.1s0.8,0.5,1.3,0.5h5.1L636.7,282.6z M627.5,305.2l4.3-11.8c0.3-0.5,0.5-1.1,0.5-1.9
        c0.3-0.8,0.5-1.6,0.8-2.4c0.3,0.8,0.5,1.6,0.8,2.4c0.3,0.8,0.5,1.3,0.5,1.9l4.3,12.1h-11.3V305.2z"/>
    <path fill="#11A54A" d="M663.8,313.8c-1.3,0-2.4-0.3-3.2-0.5s-1.6-0.8-2.4-1.1c-0.5-0.5-1.3-0.8-1.6-1.1c-0.5-0.3-0.8-0.5-1.3-0.5
        c-0.3,0-0.5,0-0.8,0.3c-0.3,0.3-0.5,0.3-0.5,0.5l-1.9,3.2c0.8,0.8,1.6,1.3,2.4,1.9c0.8,0.5,1.9,1.1,3,1.6c1.1,0.5,2.2,0.8,3.2,1.1
        c1.1,0.3,2.2,0.3,3.5,0.3c1.9,0,3.8-0.3,5.4-0.8c1.6-0.5,3-1.3,4-2.4c1.1-1.1,1.9-2.4,2.4-3.8c0.5-1.3,0.8-3,0.8-4.6
        c0-1.6-0.3-2.7-0.8-3.8s-1.1-1.9-1.9-2.7s-1.6-1.3-2.7-1.9c-1.1-0.5-1.9-0.8-3-1.3c-1.1-0.3-2.2-0.8-3-1.1
        c-1.1-0.3-1.9-0.5-2.7-1.1c-0.8-0.3-1.3-0.8-1.9-1.3c-0.5-0.5-0.8-1.3-0.8-2.2c0-0.5,0-1.3,0.3-1.9c0.3-0.5,0.5-1.1,1.1-1.3
        s1.1-0.8,1.6-0.8c0.8-0.3,1.6-0.3,2.4-0.3c1.1,0,1.9,0,2.7,0.3c0.8,0.3,1.3,0.5,1.9,0.8s1.1,0.5,1.3,0.8c0.5,0.3,0.8,0.3,1.1,0.3
        s0.5,0,0.8-0.3c0.3-0.3,0.5-0.5,0.5-0.8l1.6-3.2c-1.3-1.1-2.7-2.2-4.6-2.7c-1.9-0.5-3.8-1.1-5.9-1.1c-1.9,0-3.5,0.3-5.1,0.8
        c-1.3,0.5-2.7,1.3-3.8,2.4s-1.9,2.2-2.4,3.2c-0.5,1.3-0.8,2.4-0.8,3.8c0,1.6,0.3,3,0.8,4c0.5,1.1,1.1,2.2,1.9,2.7
        c0.8,0.8,1.6,1.3,2.7,1.9c1.1,0.5,1.9,0.8,3,1.1s2.2,0.5,3,0.8c1.1,0.3,1.9,0.5,2.7,1.1c0.8,0.5,1.3,0.8,1.9,1.6
        c0.5,0.5,0.8,1.3,0.8,2.4c0,1.6-0.5,3-1.6,3.8C667.3,313.2,665.7,313.8,663.8,313.8z"/>
    <path fill="#11A54A" d="M698.8,282.6h-6.7l-14.3,36h5.1c0.5,0,1.1-0.3,1.3-0.5s0.5-0.5,0.8-1.1l2.7-7.3h14.8l2.7,7.3
        c0.3,0.5,0.5,0.8,0.8,1.1c0.3,0.3,0.8,0.5,1.3,0.5h5.1L698.8,282.6z M689.7,305.2l4.3-11.8c0.3-0.5,0.5-1.1,0.5-1.9
        c0.3-0.8,0.5-1.6,0.8-2.4c0.3,0.8,0.5,1.6,0.8,2.4c0.3,0.8,0.5,1.3,0.5,1.9l4.3,12.1h-11.3V305.2z"/>
    <path fill="#11A54A" d="M747.2,293.3c-0.8-2.2-2.2-4-3.8-5.6c-1.6-1.6-3.5-2.7-5.6-3.8s-4.8-1.3-7.5-1.3h-13.7v36h13.7
        c2.7,0,5.1-0.5,7.5-1.3c2.2-0.8,4-2.2,5.6-3.8c1.6-1.6,3-3.5,3.8-5.6s1.3-4.6,1.3-7.3C748.6,297.9,748.3,295.8,747.2,293.3z
         M741,306c-0.5,1.6-1.3,3-2.2,4c-1.1,1.1-2.2,1.9-3.5,2.4c-1.3,0.5-3,0.8-4.8,0.8h-7V288h7c1.9,0,3.2,0.3,4.8,0.8
        c1.3,0.5,2.7,1.3,3.5,2.4c1.1,1.1,1.6,2.4,2.2,4c0.5,1.6,0.8,3.2,0.8,5.4S741.6,304.4,741,306z"/>
    <path fill="#11A54A" d="M751.2,288h18l-18.6,26.4c-0.3,0.3-0.3,0.5-0.5,0.8c0,0.3-0.3,0.5-0.3,1.1v2.7h27.4v-5.4h-18.6l18.6-26.1
        c0.5-0.5,0.5-1.3,0.5-2.2v-2.4h-26.6L751.2,288L751.2,288z"/>
    <polygon fill="#11A54A" points="783,318.6 805.8,318.6 805.8,313.5 789.7,313.5 789.7,303.3 802.4,303.3 802.4,297.9 789.7,297.9 
        789.7,288 805.8,288 805.8,282.6 783,282.6     "/>
    <path fill="#11A54A" d="M836,282.6v22.1c0,0.5,0,1.1,0,1.6c0,0.5,0,1.1,0.3,1.6l-18.8-24.2c-0.3-0.3-0.3-0.5-0.5-0.5
        c-0.3-0.3-0.3-0.3-0.5-0.3c-0.3,0-0.3,0-0.5-0.3c-0.3,0-0.5,0-0.8,0h-3.5v36h5.9v-22.1c0-0.5,0-0.8,0-1.3c0-0.5,0-1.1,0-1.6
        l18.8,23.9c0.3,0.5,0.8,0.8,1.1,0.8c0.3,0.3,0.8,0.3,1.3,0.3h3.5v-36H836z"/>
    <path fill="#11A54A" d="M827.9,280.2c0.3,0,0.3,0,0.5,0s0.3,0,0.5-0.3c0.3,0,0.3-0.3,0.5-0.3l7.3-5.4h-6.7c-0.3,0-0.5,0-0.8,0
        c-0.3,0-0.5,0-0.5,0.3c-0.3,0-0.3,0.3-0.5,0.3c-0.3,0-0.3,0.3-0.5,0.5l-4.8,5.1h4.8C827.4,280.2,827.6,280.2,827.9,280.2z"/>
    <path fill="#11A54A" d="M612.2,343.4c-0.8-2.2-2.2-4-3.8-5.6s-3.5-2.7-5.6-3.8c-2.2-0.8-4.8-1.3-7.5-1.3h-13.7v36h13.7
        c2.7,0,5.1-0.5,7.5-1.3c2.2-0.8,4-2.2,5.6-3.8c1.6-1.6,3-3.5,3.8-5.6c0.8-2.2,1.3-4.6,1.3-7.3S613,345.5,612.2,343.4z M605.7,355.7
        c-0.5,1.6-1.3,3-2.2,4c-1.1,1.1-2.2,1.9-3.5,2.4c-1.3,0.5-3,0.8-4.8,0.8h-7v-25.3h7c1.9,0,3.2,0.3,4.8,0.8c1.3,0.5,2.7,1.3,3.5,2.4
        c1.1,1.1,1.6,2.4,2.2,4c0.5,1.6,0.8,3.2,0.8,5.4C606.5,352.5,606.3,354.4,605.7,355.7z"/>
    <path fill="#11A54A" d="M638,355.2c-0.5-0.8-1.3-1.6-2.2-2.2c1.3-0.3,2.4-0.8,3.5-1.6c1.1-0.5,1.9-1.3,2.4-2.4
        c0.8-0.8,1.1-1.9,1.6-3c0.3-1.1,0.5-2.2,0.5-3.5c0-1.6-0.3-3-0.8-4.3c-0.5-1.3-1.3-2.4-2.4-3.2c-1.1-0.8-2.7-1.6-4.3-2.2
        c-1.9-0.5-3.8-0.8-6.2-0.8h-11v36h6.7v-14h3c0.5,0,1.1,0,1.6,0.3c0.3,0.3,0.5,0.5,0.8,0.8l7.5,11.6c0.3,0.5,0.5,0.8,1.1,1.1
        c0.5,0.3,0.8,0.3,1.6,0.3h5.9L638,355.2z M633.2,349.3c-0.8,0.3-2.2,0.5-3.2,0.5h-4.3V338h4.3c2.4,0,4.3,0.5,5.6,1.3
        c1.1,1.1,1.9,2.4,1.9,4.3c0,0.8-0.3,1.9-0.5,2.4c-0.3,0.8-0.8,1.3-1.3,1.9C634.8,348.5,634,349,633.2,349.3z"/>
    <path fill="#11A54A" d="M650.4,338h18l-18.6,26.4c-0.3,0.3-0.3,0.5-0.5,0.8c0,0.3-0.3,0.5-0.3,1.1v2.7h27.4v-5.4h-18.6l18.6-26.1
        c0.5-0.5,0.5-1.3,0.5-2.2v-2.4h-26.6V338z"/>
    <polygon fill="#11A54A" points="682.1,368.6 704.7,368.6 704.7,363.3 688.8,363.3 688.8,353 701.5,353 701.5,347.9 688.8,347.9 
        688.8,338 704.7,338 704.7,332.6 682.1,332.6     "/>
    <path fill="#11A54A" d="M752.1,332.9c-0.3,0.3-0.5,0.5-0.8,1.1l-6.2,21.5c0,0.5-0.3,1.1-0.3,1.6c0,0.5-0.3,1.3-0.3,1.9
        c-0.3-1.3-0.5-2.4-1.1-3.5l-7-21.5c-0.3-0.5-0.5-0.8-0.8-1.1c-0.3-0.3-0.8-0.5-1.3-0.5h-1.9c-0.5,0-1.1,0.3-1.3,0.5
        c-0.3,0.3-0.5,0.5-0.8,1.1l-7,21.5c-0.3,0.5-0.3,1.1-0.5,1.6c-0.3,0.5-0.3,1.3-0.5,1.9c0-0.8-0.3-1.3-0.3-1.9s-0.3-1.1-0.5-1.6
        l-6.2-21.5c0-0.5-0.3-0.8-0.8-1.1c-0.3-0.3-0.8-0.5-1.3-0.5h-5.6l11.3,36h6.2l8.1-24.7c0-0.3,0.3-0.5,0.3-1.1
        c0-0.3,0.3-0.8,0.3-1.1c0,0.5,0.3,0.8,0.3,1.1c0,0.3,0.3,0.8,0.3,1.1l7.8,24.7h6.2l11.3-36h-5.4
        C753.1,332.6,752.6,332.6,752.1,332.9z"/>
    <path fill="#FFFFFF" d="M524,246.8c-6.5-6.2-14-11.3-23.1-14.8c-8.9-3.5-19.1-5.4-29.9-5.4h-54.9v42.5c1.9-1.3,4-2.2,6.2-2.7
        c1.1-2.2,2.7-3.8,4.6-5.1c1.9-1.3,4-2.2,6.5-2.4c1.1-4,3.5-7.8,6.5-10.5c3.8-3.2,8.6-5.4,13.7-5.4c4.3,0,8.1,1.3,11.3,3.5
        c2.7,1.9,5.1,4.3,6.7,7c0.3,0,0.8,0,1.1,0c4,0,7.5,1.6,10,4.3l0.3,0.3c2.2,2.4,3.8,5.6,4,9.1c3.8,1.3,7,3.8,9.4,6.7
        c3,3.8,4.8,8.3,4.8,13.7c0,1.9-0.3,3.8-0.8,5.6c-0.3,0.8-0.5,1.6-0.8,2.4c2.7,1.9,5.1,4.3,7,7.3v0.3c2.2,3.8,3.5,7.8,3.5,12.4
        c0,6.7-2.7,12.6-6.7,16.9c-4.3,4.3-10,7-16.4,7c-2.2,0-4-0.3-5.9-0.8c-4.6,0.5-8.9,2.4-12.9,5.4c-3.2,2.4-6.5,5.9-9.4,10v13.4h19.1
        c8.3-0.5,15.9-2.2,23.1-5.1c8.9-3.5,16.7-8.3,23.1-14.8c6.5-6.2,11.3-13.7,14.8-22.3c3.5-8.6,5.4-18,5.4-28.2
        c0-10.2-1.9-19.6-5.4-28.2C535.3,260.3,530.4,253,524,246.8z"/>
    <path fill="#FFFFFF" d="M439,343.9c-4-3-8.3-4.8-12.9-5.4c-1.9,0.5-3.8,0.8-5.9,0.8c-1.3,0-3-0.3-4.3-0.5v28.8h1.3
        c0.3-0.3,0.8-0.3,1.1-0.3h29.9v-13.4C445.4,349.8,442.5,346.6,439,343.9z"/>
    <path fill="#FFFFFF" d="M364.2,301.4c0,2.2,0,4.6,0.3,7.3c0,2.4,0.3,5.1,0.5,7.8l-67.2-84.7c-0.8-1.1-1.6-1.9-2.4-2.7
        c-0.8-0.5-1.3-1.1-2.2-1.6c-0.8-0.3-1.6-0.5-2.7-0.8c-1.1,0-2.2-0.3-3.5-0.3h-17.2v141.2h28.8V292c0-2.2,0-4.3-0.3-6.7
        c0-2.4-0.3-4.8-0.5-7.3l66.4,83.9c1.6,2.2,3.2,3.5,5.1,4.3c1.6,0.8,3.8,1.1,6.5,1.1h16.9V226.6h-28.8v74.8H364.2z"/>
    <path fill="#FFFFFF" d="M203.6,226.6h-33.4l-54.6,141.2h25.6c2.7,0,5.1-0.8,7-2.2c1.9-1.3,3.2-3,3.8-4.8l8.3-24.5h53.5l8.3,24.5
        c0.8,2.2,1.9,3.8,3.8,5.1c1.9,1.3,4.3,1.9,7,1.9h25.3L203.6,226.6z M167.8,313.8l12.9-38.5c1.1-2.4,1.9-5.4,3.2-8.6
        c1.1-3.2,2.2-7,3.2-11c1.1,3.8,2.2,7.5,3.2,10.8c1.1,3.2,2.2,6.2,3,8.6l12.9,38.7H167.8z"/>
    <path fill="#FFFFFF" d="M102.5,305.7c-4.6-5.1-11.3-8.6-20.7-11c4.3-1.6,7.8-3.5,11-5.4c3-2.2,5.6-4.3,7.5-7
        c1.9-2.7,3.2-5.4,4.3-8.3c0.8-3,1.3-5.9,1.3-9.1c0-5.9-1.1-11-3-15.9c-1.9-4.8-5.1-8.6-9.4-12.1c-4.3-3.2-10-5.9-16.7-7.5
        c-6.7-1.9-15.1-2.7-25-2.7H0v141.2h56.5c8.3,0,15.9-1.1,22.6-3.2c6.5-2.2,12.1-5.1,16.7-8.9c4.6-3.8,7.8-8.3,10.2-13.4
        c2.4-5.1,3.5-10.8,3.5-16.7C109.2,317.3,107.1,310.8,102.5,305.7z M32.8,251.1h19.1c3.8,0,6.7,0.3,9.4,0.8s4.8,1.6,6.7,3
        c1.6,1.3,3,3.2,3.8,5.4c0.8,2.2,1.3,5.1,1.3,8.3c0,3.5-0.5,6.2-1.6,8.6c-1.1,2.2-2.7,4-4.6,5.4c-2.2,1.3-4.6,2.2-7.5,2.7
        c-3,0.5-6.2,0.8-9.7,0.8H32.8C32.8,286.1,32.8,251.1,32.8,251.1z M76.1,331.3c-0.5,2.2-1.6,4-3.2,5.9c-1.6,1.6-3.8,3.2-6.5,4.3
        c-2.7,1.1-6.2,1.6-10.5,1.6H32.8v-35.2h22.9c4,0,7.5,0.3,10.2,1.1c2.7,0.8,4.8,1.9,6.5,3.2s2.7,3.2,3.5,5.1c0.8,2.2,1.1,4.3,1.1,7
        C76.9,326.7,76.7,329.1,76.1,331.3z"/>
</g>
<g>
    <rect x="0" y="381.9" fill="#11A54A" width="115.1" height="50"/>
    <g>
        <path fill="#FFFFFF" d="M12.1,393.8h12.3c3,0,5.4,0.8,6.9,2.3c1.2,1.2,1.8,2.7,1.8,4.5v0.1c0,3-1.6,4.7-3.5,5.7c3.1,1.2,5,3,5,6.5
            v0.1c0,4.8-3.9,7.3-9.9,7.3H12.1V393.8z M23.1,404.5c2.6,0,4.2-0.8,4.2-2.8v-0.1c0-1.7-1.4-2.7-3.8-2.7h-5.8v5.6H23.1z
             M24.7,415.2c2.6,0,4.1-0.9,4.1-2.9v-0.1c0-1.8-1.3-2.9-4.3-2.9h-6.7v5.8H24.7z"/>
        <path fill="#FFFFFF" d="M37.5,393.8h20v5.2H43.3v5.4h12.5v5.2H43.3v5.6h14.4v5.2H37.5V393.8z"/>
        <path fill="#FFFFFF" d="M67.2,399.2h-8.1v-5.4h22v5.4H73v21.1h-5.8V399.2z"/>
        <path fill="#FFFFFF" d="M89.3,393.6h5.4l11.4,26.7H100l-2.4-5.9H86.4l-2.4,5.9H78L89.3,393.6z M95.5,409.2l-3.5-8.6l-3.5,8.6H95.5
            z"/>
    </g>
</g>
</svg>
